PathFileType	4	(X/Y/Z)	Patient4_TMGait_0pt8_01_left_17.trc.trc
DataRate	CameraRate	NumFrames	NumMarkers	Units	OrigDataRate	OrigDataStartFrame	OrigNumFrames
86.419753086420	86.419753086420	4	33	mm	86.419753086420	53	       141
Frame#	Time	Sacral			L.Shoulder			Chest			R.Shoulder			Neck			R.ASIS			L.ASIS			R.Thigh.Superior			R.Thigh.Lateral			R.Thigh.Inferior			R.Patella			L.Thigh.Superior			L.Thigh.Lateral			L.Thigh.Inferior			L.Patella			L.Shank.Superior			L.Shank.Lateral			L.Shank.Inferior			R.Shank.Superior			R.Shank.Lateral			R.Shank.Inferior			R.Heel			R.Midfoot.Superior			R.Midfoot.Lateral			R.Toe			L.Heel			L.Midfoot.Lateral			L.Midfoot.Superior			L.Toe			L.Elbow			L.Wrist			R.Elbow			R.Wrist			
		X1	Y1	Z1	X2	Y2	Z2	X3	Y3	Z3	X4	Y4	Z4	X5	Y5	Z5	X6	Y6	Z6	X7	Y7	Z7	X8	Y8	Z8	X9	Y9	Z9	X10	Y10	Z10	X11	Y11	Z11	X12	Y12	Z12	X13	Y13	Z13	X14	Y14	Z14	X15	Y15	Z15	X16	Y16	Z16	X17	Y17	Z17	X18	Y18	Z18	X19	Y19	Z19	X20	Y20	Z20	X21	Y21	Z21	X22	Y22	Z22	X23	Y23	Z23	X24	Y24	Z24	X25	Y25	Z25	X26	Y26	Z26	X27	Y27	Z27	X28	Y28	Z28	X29	Y29	Z29	X30	Y30	Z30	X31	Y31	Z31	X32	Y32	Z32	X33	Y33	Z33	

53	18.851714285714	905.012568889111	1012.283582197371	407.051166501298	1076.126674896688	1444.773814309656	237.799242620305	1178.674205044242	1374.777239928604	398.944613161876	1090.992211063584	1440.176474532620	574.687417145140	1056.569787675272	1502.313764977911	395.587379997017	1132.286512460144	952.108037780494	524.924385726391	1121.301555134421	969.778025423259	250.981964240439	1214.836834576485	781.832248780940	501.996420437847	1175.887602299840	662.622688574567	578.132317865171	1267.213407274988	621.730583481415	501.201346437684	1285.500449628507	506.867668730859	527.335506919036	1163.074283510867	752.013370089525	281.770500338829	1065.049146161981	637.625442996383	229.882561344939	1148.345184536223	558.094192251634	291.413435335617	1146.246631771980	490.283637832945	304.540152730030	1120.868997965538	418.973142190432	300.446705508139	1030.041812143932	302.228046910267	260.129542275832	1085.551730990585	194.174981294962	332.378056913401	1203.958409992439	435.591090424700	535.316071157962	1077.320679565518	407.402671153037	592.143519025666	1057.725798362451	297.411625535681	547.055230701222	855.124312231080	248.205382804059	512.758650261522	1017.337917866470	180.332756010050	562.957726463461	905.827134569989	185.383398654175	589.664355643655	1072.501915520207	63.178825912760	592.274653060286	961.059977208208	39.059728136851	388.385066412077	1029.251613389888	35.974088319811	302.768964837969	1114.348820414571	96.914666151589	323.915951522240	1240.475972197512	43.377569031227	286.812591241545	1090.050734316407	1094.575889140264	109.554477730935	1241.849480068289	881.625117674525	105.358126433588	1043.942164443183	1086.409096526908	671.988870860385	1159.220739573492	852.443686847927	666.200185035293	
54	18.863285714286	903.411267016591	1012.743609871235	405.533462203397	1077.113277508663	1445.287764549768	236.959051815643	1178.098250272430	1374.758320160880	398.810394075739	1089.216528768853	1440.073848752148	573.929216566076	1056.305008881719	1502.630679776938	394.697781953504	1130.039604168684	953.013079674509	524.913370134567	1120.531600253269	969.828678353038	250.739152586188	1215.348927900514	786.124376866966	501.133532771905	1180.023761808388	666.189877475720	577.592064234583	1271.431799532438	627.147835590779	499.919177659073	1292.902947850213	512.977790385050	526.274229914156	1159.553087100027	750.991951631476	282.518053947475	1060.371783860967	637.689628946544	229.577611088204	1142.137230854676	557.182667781187	291.660830201158	1138.984466097533	489.516811745828	304.840518576673	1113.444819701772	418.555479847376	300.479599246295	1022.055014475012	302.291452904789	259.869136798642	1076.809790355974	193.973827942467	332.312422511175	1213.801201412414	439.253712001865	534.336290726140	1088.511585487858	406.089502731454	591.367328017113	1072.945752216057	295.473209246754	545.965241502754	872.079445533269	238.460745726851	512.108566368625	1037.288996518186	177.292963976668	562.138243001331	925.572025755646	177.659104363934	588.819391338735	1096.995462483754	62.182216356468	590.682094108352	951.716671117781	39.094340545586	388.328867417344	1019.954066099329	35.949327553009	302.737882630010	1105.067374379439	96.845779359194	323.880754627786	1231.214975712784	43.219962967980	286.809004978681	1099.695320608545	1096.985038856111	105.563801605343	1262.892938175673	892.645648248449	102.591587933727	1034.712350944955	1087.225166593770	670.244053111800	1130.867075010471	844.125346508538	667.656532417485	
55	18.874857142857	901.817156512912	1012.994073838900	404.134305780055	1078.202569027964	1445.615914273811	236.214530644802	1177.584018891625	1374.547739467093	398.783204297613	1087.494771699991	1439.803990820963	573.264392000799	1056.096285244918	1502.778564450153	393.876492660566	1127.821179711719	953.664187481439	524.943733416795	1119.631951862271	969.682432008650	250.609801451662	1215.618278323972	790.006122489437	500.498041789081	1183.606802053766	669.442462825931	577.238448978478	1275.044042722915	632.070783199734	498.922041550182	1299.484473103026	518.843211656276	525.501637262500	1156.002557688237	749.913897843019	283.224375525194	1055.732780254333	637.680766235367	229.246234150087	1135.978809689613	556.241798020917	291.827922518127	1131.812372779627	488.743868376874	305.009305085127	1106.077730182571	418.094351963900	300.436178750413	1014.086514701637	302.332450286562	259.551465615450	1068.056137475866	193.749122111328	332.206849228087	1223.150524672996	442.611423943048	533.542073110087	1099.640248503046	403.940239039571	590.825764509369	1088.581061867634	292.841545188928	545.034594411284	890.037963845247	227.412603030831	511.718072689836	1058.180726899225	173.445232313741	561.349830885168	946.443520311082	168.779663377497	588.093988867698	1122.700724681810	60.662958348213	588.989137679983	942.378298120445	39.136460430707	388.265332726975	1010.658554753256	35.914675656929	302.702657466570	1095.790498173755	96.774379771301	323.828552955533	1221.965108104632	43.057172119897	286.802913283898	1108.955079867126	1099.438921347824	101.853492518909	1283.194066665865	904.454732041408	100.276652577692	1025.207203575254	1088.183426445248	668.652403726287	1102.615199250304	838.040564993382	668.977934681358	
56	18.886428571429	900.257554455053	1013.042357087223	402.858177458806	1079.374005996017	1445.754383925147	235.577831575702	1177.133719858284	1374.153843526543	398.866996244762	1085.844381324753	1439.384209945130	572.702180062508	1055.950381835209	1502.760754205643	393.132763423136	1125.665711114649	954.061307930900	524.999762889778	1118.622546466786	969.359171907315	250.569856817509	1215.631382325668	793.393316740626	500.050432599812	1186.559766970124	672.287843443226	577.043731008248	1277.996080995450	636.390009414080	498.208340406796	1305.150074725409	524.353037203828	525.008156535918	1152.449456060401	748.780769355335	283.840033105723	1051.102434740465	637.616237266370	228.893077995570	1129.837074133221	555.273521693829	291.904655108684	1124.699731013194	487.975691561716	305.043006171511	1098.734348834442	417.603888860895	300.316730246635	1006.110511642157	302.359044207892	259.184400744741	1059.281485931022	193.509587804374	332.063175276801	1231.916424323042	445.622024084682	532.934062539258	1110.682930822128	400.999094634798	590.519423330695	1104.589469268924	289.624596515954	544.282994808393	909.066260162897	215.242869908999	511.561427845548	1079.958864165663	168.959499551938	560.615942553617	968.452017275629	158.989225535610	587.512516519884	1149.504425206117	58.892416579630	587.348143022220	933.046350904077	39.189356206392	388.192253642305	1001.363346444067	35.872579168203	302.662589291646	1086.518549844925	96.702591683470	323.758931296659	1212.722517069695	42.891478115104	286.793590724410	1117.819648088926	1101.890009320878	98.437999072870	1302.659915846092	916.971153621211	98.424693118203	1015.401799109578	1089.348868835273	667.240014524095	1074.797969974629	834.098725745364	670.139618891383	
